<svg width="332" height="39" viewBox="0 0 332 39" fill="none">
  <path d="M357.009 0.000141345C368.053 0.000141345 368.053 4.3475 379.097 4.3475V13.0422C368.053 13.0422 368.053 8.69485 357.009 8.69485C345.965 8.69485 345.965 13.0422 334.921 13.0422C323.878 13.0422 323.878 8.69485 312.834 8.69485C301.79 8.69485 301.79 13.0422 290.746 13.0422C279.702 13.0422 279.702 8.69485 268.659 8.69485C257.615 8.69485 257.615 13.0422 246.571 13.0422C235.527 13.0422 235.527 8.69485 224.483 8.69485C213.44 8.69485 213.44 13.0422 202.396 13.0422C191.352 13.0422 191.352 8.69485 180.308 8.69485C179.065 8.69131 177.827 8.75449 176.627 8.88266V0.187947C177.827 0.0597793 179.065 -0.00340449 180.308 0.000141345C191.352 0.000141345 191.352 4.3475 202.396 4.3475C213.44 4.3475 213.44 0.000141345 224.483 0.000141345C235.527 0.000141345 235.527 4.3475 246.571 4.3475C257.615 4.3475 257.615 0.000141345 268.659 0.000141345C279.702 0.000141345 279.702 4.3475 290.746 4.3475C301.79 4.3475 301.79 0.000141345 312.834 0.000141345C323.878 0.000141345 323.878 4.3475 334.921 4.3475C345.965 4.3475 345.965 0.000141345 357.009 0.000141345Z" fill="#D27F65"/>
  <path d="M313.149 8.69497C324.193 8.69497 324.193 13.0423 335.237 13.0423V21.737C324.193 21.737 324.193 17.3897 313.149 17.3897C302.105 17.3897 302.105 21.737 291.062 21.737C280.018 21.737 280.018 17.3897 268.974 17.3897C257.93 17.3897 257.93 21.737 246.886 21.737C235.843 21.737 235.843 17.3897 224.799 17.3897C213.755 17.3897 213.755 21.737 202.711 21.737C191.667 21.737 191.667 17.3897 180.624 17.3897C169.58 17.3897 169.58 21.737 158.536 21.737C147.492 21.737 147.492 17.3897 136.448 17.3897C125.405 17.3897 125.405 21.737 114.361 21.737C103.317 21.737 103.317 17.3897 92.2732 17.3897C91.0301 17.3861 89.7916 17.4493 88.5919 17.5775V8.88277C89.7916 8.7546 91.0301 8.69142 92.2732 8.69497C103.317 8.69497 103.317 13.0423 114.361 13.0423C125.405 13.0423 125.405 8.69497 136.448 8.69497C147.492 8.69497 147.492 13.0423 158.536 13.0423C169.58 13.0423 169.58 8.69497 180.624 8.69497C191.667 8.69497 191.667 13.0423 202.711 13.0423C213.755 13.0423 213.755 8.69497 224.799 8.69497C235.843 8.69497 235.843 13.0423 246.886 13.0423C257.93 13.0423 257.93 8.69497 268.974 8.69497C280.018 8.69497 280.018 13.0423 291.062 13.0423C302.105 13.0423 302.105 8.69497 313.149 8.69497Z" fill="#F8A388"/>
  <path d="M224.413 17.3897C235.457 17.3897 235.457 21.7371 246.501 21.7371V30.4318C235.457 30.4318 235.457 26.0844 224.413 26.0844C213.369 26.0844 213.369 30.4318 202.326 30.4318C191.282 30.4318 191.282 26.0844 180.238 26.0844C169.194 26.0844 169.194 30.4318 158.15 30.4318C147.107 30.4318 147.107 26.0844 136.063 26.0844C125.019 26.0844 125.019 30.4318 113.975 30.4318C102.931 30.4318 102.931 26.0844 91.8876 26.0844C80.8438 26.0844 80.8438 30.4318 69.7999 30.4318C58.7561 30.4318 58.7561 26.0844 47.7123 26.0844C46.4693 26.0809 45.2308 26.1441 44.0311 26.2722V17.5775C45.2308 17.4494 46.4693 17.3862 47.7123 17.3897C58.7561 17.3897 58.7561 21.7371 69.7999 21.7371C80.8438 21.7371 80.8438 17.3897 91.8876 17.3897C102.931 17.3897 102.931 21.7371 113.975 21.7371C125.019 21.7371 125.019 17.3897 136.063 17.3897C147.107 17.3897 147.107 21.7371 158.15 21.7371C169.194 21.7371 169.194 17.3897 180.238 17.3897C191.282 17.3897 191.282 21.7371 202.326 21.7371C213.369 21.7371 213.369 17.3897 224.413 17.3897Z" fill="#D27F65"/>
  <path d="M400.382 17.0001C411.426 17.0001 411.426 21.3475 422.47 21.3475V30.0422C411.426 30.0422 411.426 25.6949 400.382 25.6949C389.338 25.6949 389.338 30.0422 378.295 30.0422C367.251 30.0422 367.251 25.6949 356.207 25.6949C345.163 25.6949 345.163 30.0422 334.119 30.0422C323.076 30.0422 323.076 25.6949 312.032 25.6949C300.988 25.6949 300.988 30.0422 289.944 30.0422C278.9 30.0422 278.9 25.6949 267.856 25.6949C256.813 25.6949 256.813 30.0422 245.769 30.0422C234.725 30.0422 234.725 25.6949 223.681 25.6949C222.438 25.6913 221.2 25.7545 220 25.8827V17.1879C221.2 17.0598 222.438 16.9966 223.681 17.0001C234.725 17.0001 234.725 21.3475 245.769 21.3475C256.813 21.3475 256.813 17.0001 267.856 17.0001C278.9 17.0001 278.9 21.3475 289.944 21.3475C300.988 21.3475 300.988 17.0001 312.032 17.0001C323.076 17.0001 323.076 21.3475 334.119 21.3475C345.163 21.3475 345.163 17.0001 356.207 17.0001C367.251 17.0001 367.251 21.3475 378.295 21.3475C389.338 21.3475 389.338 17.0001 400.382 17.0001Z" fill="#D27F65"/>
  <path d="M224.557 25.9579C235.601 25.9579 235.601 30.3053 246.645 30.3053V39C235.601 39 235.601 34.6526 224.557 34.6526C213.514 34.6526 213.514 39 202.47 39C191.426 39 191.426 34.6526 180.382 34.6526C169.338 34.6526 169.338 39 158.295 39C147.251 39 147.251 34.6526 136.207 34.6526C125.163 34.6526 125.163 39 114.119 39C103.076 39 103.076 34.6526 92.0317 34.6526C80.9879 34.6526 80.9879 39 69.9441 39C58.9003 39 58.9003 34.6526 47.8565 34.6526C36.8127 34.6526 36.8127 39 25.7689 39C14.7251 39 14.7251 34.6526 3.68127 34.6526C2.4382 34.6491 1.19971 34.7123 0 34.8404V26.1457C1.19971 26.0175 2.4382 25.9544 3.68127 25.9579C14.7251 25.9579 14.7251 30.3053 25.7689 30.3053C36.8127 30.3053 36.8127 25.9579 47.8565 25.9579C58.9003 25.9579 58.9003 30.3053 69.9441 30.3053C80.9879 30.3053 80.9879 25.9579 92.0317 25.9579C103.076 25.9579 103.076 30.3053 114.119 30.3053C125.163 30.3053 125.163 25.9579 136.207 25.9579C147.251 25.9579 147.251 30.3053 158.295 30.3053C169.338 30.3053 169.338 25.9579 180.382 25.9579C191.426 25.9579 191.426 30.3053 202.47 30.3053C213.514 30.3053 213.514 25.9579 224.557 25.9579Z" fill="#F8A388"/>
</svg>
